<mxfile host="Electron" modified="2024-06-11T18:09:02.075Z" agent="Mozilla/5.0 (Windows NT 10.0; Win64; x64) AppleWebKit/537.36 (KHTML, like Gecko) draw.io/24.5.1 Chrome/124.0.6367.207 Electron/30.0.6 Safari/537.36" etag="0rp8IFM4WbM86g7k-u5n" version="24.5.1" type="device">
  <diagram name="Page-1" id="c4acf3e9-155e-7222-9cf6-157b1a14988f">
    <mxGraphModel dx="2245" dy="703" grid="1" gridSize="10" guides="1" tooltips="1" connect="1" arrows="1" fold="1" page="1" pageScale="1" pageWidth="850" pageHeight="1100" background="none" math="0" shadow="0">
      <root>
        <mxCell id="0" />
        <mxCell id="1" parent="0" />
        <mxCell id="eYf89eNxzqFctARPRBTG-3" style="edgeStyle=orthogonalEdgeStyle;rounded=0;orthogonalLoop=1;jettySize=auto;html=1;entryX=0.5;entryY=1;entryDx=0;entryDy=0;" edge="1" parent="1" source="v0LUuX2IFI3NKgHHK7oa-2" target="rW2vfWE-jzhWKdvsPfqK-1">
          <mxGeometry relative="1" as="geometry" />
        </mxCell>
        <mxCell id="v0LUuX2IFI3NKgHHK7oa-2" value="&lt;p style=&quot;margin: 4px 0px 0px;&quot;&gt;&lt;/p&gt;&lt;div style=&quot;text-align: center;&quot;&gt;&lt;i&gt;Pokemon&lt;/i&gt;&lt;/div&gt;&lt;hr&gt;&lt;p style=&quot;margin:0px;margin-left:4px;&quot;&gt;- nombre : str&lt;br&gt;&lt;/p&gt;&lt;p style=&quot;margin:0px;margin-left:4px;&quot;&gt;- nivel: int&lt;/p&gt;&lt;p style=&quot;margin:0px;margin-left:4px;&quot;&gt;- tipo: str&lt;/p&gt;&lt;p style=&quot;margin:0px;margin-left:4px;&quot;&gt;- salud: int&lt;/p&gt;&lt;p style=&quot;margin:0px;margin-left:4px;&quot;&gt;- ataque: int&lt;/p&gt;&lt;p style=&quot;margin:0px;margin-left:4px;&quot;&gt;- defensa: int&lt;/p&gt;&lt;p style=&quot;margin:0px;margin-left:4px;&quot;&gt;- habilidades : list[ ]&lt;/p&gt;&lt;hr size=&quot;1&quot;&gt;&lt;p style=&quot;margin:0px;margin-left:4px;&quot;&gt;+ atacar(objetivo: Pokemon)&lt;/p&gt;&lt;p style=&quot;margin:0px;margin-left:4px;&quot;&gt;+ agregar_habilidad(habilidad: Habilidad)&lt;br&gt;+ subirNivel()&lt;/p&gt;" style="verticalAlign=top;align=left;overflow=fill;fontSize=12;fontFamily=Helvetica;html=1;rounded=0;shadow=0;comic=0;labelBackgroundColor=none;strokeWidth=1" parent="1" vertex="1">
          <mxGeometry x="650" y="409.38" width="230" height="196.25" as="geometry" />
        </mxCell>
        <mxCell id="eYf89eNxzqFctARPRBTG-22" style="edgeStyle=orthogonalEdgeStyle;rounded=0;orthogonalLoop=1;jettySize=auto;html=1;entryX=0.5;entryY=1;entryDx=0;entryDy=0;" edge="1" parent="1" source="v0LUuX2IFI3NKgHHK7oa-3" target="v0LUuX2IFI3NKgHHK7oa-4">
          <mxGeometry relative="1" as="geometry" />
        </mxCell>
        <mxCell id="v0LUuX2IFI3NKgHHK7oa-3" value="&lt;p style=&quot;margin: 4px 0px 0px;&quot;&gt;&lt;/p&gt;&lt;div style=&quot;text-align: center;&quot;&gt;&lt;i&gt;Entrenador&lt;/i&gt;&lt;/div&gt;&lt;hr&gt;&lt;p style=&quot;margin:0px;margin-left:4px;&quot;&gt;- id: int {readonly, autoincrement}&lt;br&gt;&lt;/p&gt;&lt;p style=&quot;margin:0px;margin-left:4px;&quot;&gt;&lt;span style=&quot;background-color: initial;&quot;&gt;- nombre :&amp;nbsp;&lt;/span&gt;&lt;span style=&quot;background-color: initial;&quot;&gt;{unique}&lt;/span&gt;&lt;br&gt;&lt;/p&gt;&lt;p style=&quot;margin:0px;margin-left:4px;&quot;&gt;- equipo: list[ ]&lt;/p&gt;&lt;p style=&quot;margin:0px;margin-left:4px;&quot;&gt;- objetos: list[ ]&lt;/p&gt;&lt;p style=&quot;margin:0px;margin-left:4px;&quot;&gt;- cant_medallas: list[ ]&lt;/p&gt;&lt;hr size=&quot;1&quot;&gt;&lt;p style=&quot;margin:0px;margin-left:4px;&quot;&gt;+ capturar_pokemon(pokemon: Pokemon)&lt;br&gt;+ elegirPokemon(index: int)&lt;/p&gt;&lt;p style=&quot;margin:0px;margin-left:4px;&quot;&gt;+ luchar(otroEntrenador: Entrenador)&lt;/p&gt;" style="verticalAlign=top;align=left;overflow=fill;fontSize=12;fontFamily=Helvetica;html=1;rounded=0;shadow=0;comic=0;labelBackgroundColor=none;strokeWidth=1" parent="1" vertex="1">
          <mxGeometry x="250" y="406.88" width="250" height="170.62" as="geometry" />
        </mxCell>
        <mxCell id="v0LUuX2IFI3NKgHHK7oa-4" value="&lt;p style=&quot;margin: 4px 0px 0px;&quot;&gt;&lt;/p&gt;&lt;div style=&quot;text-align: center;&quot;&gt;Objeto&lt;/div&gt;&lt;hr&gt;&lt;p style=&quot;margin:0px;margin-left:4px;&quot;&gt;- nombre : str&lt;/p&gt;&lt;p style=&quot;margin:0px;margin-left:4px;&quot;&gt;- tipo: str&lt;br&gt;&lt;/p&gt;&lt;p style=&quot;margin:0px;margin-left:4px;&quot;&gt;- efecto: str&lt;/p&gt;&lt;hr size=&quot;1&quot;&gt;&lt;p style=&quot;margin:0px;margin-left:4px;&quot;&gt;+ usar(entrenador: Entrenador,&amp;nbsp;&lt;/p&gt;&lt;p style=&quot;margin:0px;margin-left:4px;&quot;&gt;pokemon: Pokemon)&lt;/p&gt;" style="verticalAlign=top;align=left;overflow=fill;fontSize=12;fontFamily=Helvetica;html=1;rounded=0;shadow=0;comic=0;labelBackgroundColor=none;strokeWidth=1" parent="1" vertex="1">
          <mxGeometry x="280" y="200" width="190" height="120" as="geometry" />
        </mxCell>
        <mxCell id="v0LUuX2IFI3NKgHHK7oa-5" style="edgeStyle=orthogonalEdgeStyle;rounded=0;orthogonalLoop=1;jettySize=auto;html=1;exitX=0.5;exitY=1;exitDx=0;exitDy=0;" parent="1" source="v0LUuX2IFI3NKgHHK7oa-4" target="v0LUuX2IFI3NKgHHK7oa-4" edge="1">
          <mxGeometry relative="1" as="geometry" />
        </mxCell>
        <mxCell id="eYf89eNxzqFctARPRBTG-4" style="edgeStyle=orthogonalEdgeStyle;rounded=0;orthogonalLoop=1;jettySize=auto;html=1;entryX=0;entryY=0.5;entryDx=0;entryDy=0;" edge="1" parent="1" source="v0LUuX2IFI3NKgHHK7oa-7" target="v0LUuX2IFI3NKgHHK7oa-3">
          <mxGeometry relative="1" as="geometry" />
        </mxCell>
        <mxCell id="v0LUuX2IFI3NKgHHK7oa-7" value="&lt;p style=&quot;margin: 4px 0px 0px;&quot;&gt;&lt;/p&gt;&lt;div style=&quot;text-align: center;&quot;&gt;&lt;i&gt;Batalla&lt;/i&gt;&lt;/div&gt;&lt;hr&gt;&lt;p style=&quot;margin:0px;margin-left:4px;&quot;&gt;- entrenador1: (entrenador: Entrenador)&lt;/p&gt;&lt;p style=&quot;margin:0px;margin-left:4px;&quot;&gt;-&amp;nbsp;&lt;span style=&quot;background-color: initial;&quot;&gt;entrenador2:&amp;nbsp;&lt;/span&gt;&lt;span style=&quot;background-color: initial;&quot;&gt;(entrenador: Entrenador)&lt;/span&gt;&lt;br&gt;&lt;/p&gt;&lt;p style=&quot;margin:0px;margin-left:4px;&quot;&gt;- turnoActual: int&lt;/p&gt;&lt;hr size=&quot;1&quot;&gt;&lt;p style=&quot;margin:0px;margin-left:4px;&quot;&gt;+ iniciarBatalla()&lt;br&gt;&lt;/p&gt;&lt;p style=&quot;margin:0px;margin-left:4px;&quot;&gt;+ turno(entrenador: Entrenador)&lt;/p&gt;&lt;p style=&quot;margin:0px;margin-left:4px;&quot;&gt;+ terminarBatalla()&lt;/p&gt;" style="verticalAlign=top;align=left;overflow=fill;fontSize=12;fontFamily=Helvetica;html=1;rounded=0;shadow=0;comic=0;labelBackgroundColor=none;strokeWidth=1" parent="1" vertex="1">
          <mxGeometry x="-60" y="437.5" width="230" height="140" as="geometry" />
        </mxCell>
        <mxCell id="v0LUuX2IFI3NKgHHK7oa-9" style="edgeStyle=orthogonalEdgeStyle;rounded=0;orthogonalLoop=1;jettySize=auto;html=1;entryX=0.5;entryY=1;entryDx=0;entryDy=0;" parent="1" source="v0LUuX2IFI3NKgHHK7oa-8" target="v0LUuX2IFI3NKgHHK7oa-2" edge="1">
          <mxGeometry relative="1" as="geometry" />
        </mxCell>
        <mxCell id="v0LUuX2IFI3NKgHHK7oa-8" value="&lt;p style=&quot;margin:0px;margin-top:4px;text-align:center;&quot;&gt;&lt;i&gt;Pokedex&lt;/i&gt;&lt;/p&gt;&lt;hr&gt;&lt;p style=&quot;margin:0px;margin-left:4px;&quot;&gt;- listaPokemon : list[ ]&lt;/p&gt;&lt;hr size=&quot;1&quot;&gt;&lt;p style=&quot;margin:0px;margin-left:4px;&quot;&gt;+ aÃ±adirPokemon(pokemon: Pokemon)&lt;br&gt;+ buscarPokemon(nombre: str)&lt;/p&gt;" style="verticalAlign=top;align=left;overflow=fill;fontSize=12;fontFamily=Helvetica;html=1;rounded=0;shadow=0;comic=0;labelBackgroundColor=none;strokeWidth=1" parent="1" vertex="1">
          <mxGeometry x="460" y="690" width="220" height="100" as="geometry" />
        </mxCell>
        <mxCell id="v0LUuX2IFI3NKgHHK7oa-15" value="1..*" style="text;html=1;align=center;verticalAlign=middle;whiteSpace=wrap;rounded=0;" parent="1" vertex="1">
          <mxGeometry x="610" y="480" width="60" height="30" as="geometry" />
        </mxCell>
        <mxCell id="v0LUuX2IFI3NKgHHK7oa-19" value="1" style="text;html=1;align=center;verticalAlign=middle;whiteSpace=wrap;rounded=0;" parent="1" vertex="1">
          <mxGeometry x="330" y="376.88" width="60" height="30" as="geometry" />
        </mxCell>
        <mxCell id="v0LUuX2IFI3NKgHHK7oa-20" value="*" style="text;html=1;align=center;verticalAlign=middle;whiteSpace=wrap;rounded=0;" parent="1" vertex="1">
          <mxGeometry x="330" y="330" width="60" height="10" as="geometry" />
        </mxCell>
        <mxCell id="rW2vfWE-jzhWKdvsPfqK-1" value="&lt;p style=&quot;margin: 4px 0px 0px;&quot;&gt;&lt;/p&gt;&lt;div style=&quot;text-align: center;&quot;&gt;&lt;i&gt;Habilidad&lt;/i&gt;&lt;/div&gt;&lt;hr&gt;&lt;p style=&quot;margin:0px;margin-left:4px;&quot;&gt;- nombre: str&lt;/p&gt;&lt;p style=&quot;margin:0px;margin-left:4px;&quot;&gt;- dano: int&lt;/p&gt;&lt;hr size=&quot;1&quot;&gt;&lt;p style=&quot;margin:0px;margin-left:4px;&quot;&gt;+ str&lt;/p&gt;" style="verticalAlign=top;align=left;overflow=fill;fontSize=12;fontFamily=Helvetica;html=1;rounded=0;shadow=0;comic=0;labelBackgroundColor=none;strokeWidth=1" parent="1" vertex="1">
          <mxGeometry x="550" y="190" width="110" height="100" as="geometry" />
        </mxCell>
        <mxCell id="eYf89eNxzqFctARPRBTG-6" style="edgeStyle=orthogonalEdgeStyle;rounded=0;orthogonalLoop=1;jettySize=auto;html=1;entryX=0.653;entryY=0.983;entryDx=0;entryDy=0;entryPerimeter=0;" edge="1" parent="1">
          <mxGeometry relative="1" as="geometry">
            <mxPoint x="500.82" y="510" as="sourcePoint" />
            <mxPoint x="650.0000000000003" y="511.99" as="targetPoint" />
            <Array as="points">
              <mxPoint x="555.82" y="510.5" />
              <mxPoint x="610.82" y="510.5" />
              <mxPoint x="610.82" y="512.5" />
            </Array>
          </mxGeometry>
        </mxCell>
        <mxCell id="eYf89eNxzqFctARPRBTG-10" value="&lt;p style=&quot;margin: 4px 0px 0px;&quot;&gt;&lt;/p&gt;&lt;div style=&quot;text-align: center;&quot;&gt;&lt;i&gt;Medalla&lt;/i&gt;&lt;/div&gt;&lt;hr&gt;&lt;p style=&quot;margin:0px;margin-left:4px;&quot;&gt;- nombre: str&lt;/p&gt;&lt;p style=&quot;margin:0px;margin-left:4px;&quot;&gt;- gimanasio: str&lt;/p&gt;&lt;hr size=&quot;1&quot;&gt;&lt;p style=&quot;margin:0px;margin-left:4px;&quot;&gt;+ str&amp;nbsp;&lt;/p&gt;" style="verticalAlign=top;align=left;overflow=fill;fontSize=12;fontFamily=Helvetica;html=1;rounded=0;shadow=0;comic=0;labelBackgroundColor=none;strokeWidth=1" vertex="1" parent="1">
          <mxGeometry x="60" y="650" width="230" height="100" as="geometry" />
        </mxCell>
        <mxCell id="eYf89eNxzqFctARPRBTG-11" style="edgeStyle=orthogonalEdgeStyle;rounded=0;orthogonalLoop=1;jettySize=auto;html=1;entryX=0.533;entryY=-0.015;entryDx=0;entryDy=0;entryPerimeter=0;" edge="1" parent="1" source="v0LUuX2IFI3NKgHHK7oa-3" target="eYf89eNxzqFctARPRBTG-10">
          <mxGeometry relative="1" as="geometry">
            <Array as="points">
              <mxPoint x="370" y="614" />
              <mxPoint x="183" y="614" />
            </Array>
          </mxGeometry>
        </mxCell>
        <mxCell id="eYf89eNxzqFctARPRBTG-12" value="1" style="text;html=1;align=center;verticalAlign=middle;resizable=0;points=[];autosize=1;strokeColor=none;fillColor=none;" vertex="1" parent="1">
          <mxGeometry x="500" y="480" width="30" height="30" as="geometry" />
        </mxCell>
        <mxCell id="eYf89eNxzqFctARPRBTG-13" value="1..3" style="text;html=1;align=center;verticalAlign=middle;resizable=0;points=[];autosize=1;strokeColor=none;fillColor=none;" vertex="1" parent="1">
          <mxGeometry x="600" y="290" width="40" height="30" as="geometry" />
        </mxCell>
        <mxCell id="eYf89eNxzqFctARPRBTG-14" value="1" style="text;html=1;align=center;verticalAlign=middle;resizable=0;points=[];autosize=1;strokeColor=none;fillColor=none;" vertex="1" parent="1">
          <mxGeometry x="765" y="379.38" width="30" height="30" as="geometry" />
        </mxCell>
        <mxCell id="eYf89eNxzqFctARPRBTG-15" value="0..*" style="text;html=1;align=center;verticalAlign=middle;resizable=0;points=[];autosize=1;strokeColor=none;fillColor=none;" vertex="1" parent="1">
          <mxGeometry x="180" y="620" width="40" height="30" as="geometry" />
        </mxCell>
        <mxCell id="eYf89eNxzqFctARPRBTG-16" value="1" style="text;html=1;align=center;verticalAlign=middle;resizable=0;points=[];autosize=1;strokeColor=none;fillColor=none;" vertex="1" parent="1">
          <mxGeometry x="370" y="580" width="30" height="30" as="geometry" />
        </mxCell>
        <mxCell id="eYf89eNxzqFctARPRBTG-17" value="1" style="text;html=1;align=center;verticalAlign=middle;resizable=0;points=[];autosize=1;strokeColor=none;fillColor=none;" vertex="1" parent="1">
          <mxGeometry x="160" y="479.69" width="30" height="30" as="geometry" />
        </mxCell>
        <mxCell id="eYf89eNxzqFctARPRBTG-18" value="2" style="text;html=1;align=center;verticalAlign=middle;resizable=0;points=[];autosize=1;strokeColor=none;fillColor=none;" vertex="1" parent="1">
          <mxGeometry x="220" y="470" width="30" height="30" as="geometry" />
        </mxCell>
        <mxCell id="eYf89eNxzqFctARPRBTG-19" value="1..*" style="text;html=1;align=center;verticalAlign=middle;resizable=0;points=[];autosize=1;strokeColor=none;fillColor=none;" vertex="1" parent="1">
          <mxGeometry x="760" y="605.63" width="40" height="30" as="geometry" />
        </mxCell>
        <mxCell id="eYf89eNxzqFctARPRBTG-20" value="1" style="text;html=1;align=center;verticalAlign=middle;resizable=0;points=[];autosize=1;strokeColor=none;fillColor=none;" vertex="1" parent="1">
          <mxGeometry x="565" y="658" width="30" height="30" as="geometry" />
        </mxCell>
      </root>
    </mxGraphModel>
  </diagram>
</mxfile>
